<svg id="logout_black_24dp" xmlns="http://www.w3.org/2000/svg" width="24" height="24" viewBox="0 0 24 24">
  <g id="Group_515" data-name="Group 515">
    <path id="Path_1016" data-name="Path 1016" d="M0,0H24V24H0Z" fill="none"/>
  </g>
  <g id="Group_517" data-name="Group 517">
    <g id="Group_516" data-name="Group 516">
      <path id="Path_1017" data-name="Path 1017" d="M5,5h6a1,1,0,0,0,1-1h0a1,1,0,0,0-1-1H5A2.006,2.006,0,0,0,3,5V19a2.006,2.006,0,0,0,2,2h6a1,1,0,0,0,1-1h0a1,1,0,0,0-1-1H5Z" fill="#666"/>
      <path id="Path_1018" data-name="Path 1018" d="M20.65,11.65,17.86,8.86a.5.5,0,0,0-.86.35V11H10a1,1,0,0,0-1,1H9a1,1,0,0,0,1,1h7v1.79a.5.5,0,0,0,.85.35l2.79-2.79A.492.492,0,0,0,20.65,11.65Z" fill="#666"/>
    </g>
  </g>
</svg>
