<svg id="account_tree_black_24dp_1_" data-name="account_tree_black_24dp (1)" xmlns="http://www.w3.org/2000/svg" width="22" height="22" viewBox="0 0 22 22">
  <rect id="Rectangle_1598" data-name="Rectangle 1598" width="22" height="22" fill="none"/>
  <path id="Path_11" data-name="Path 11" d="M15.5,11h2.7A1.908,1.908,0,0,0,20,9V5a1.907,1.907,0,0,0-1.8-2H15.5a1.908,1.908,0,0,0-1.8,2V6H8.309V5a1.907,1.907,0,0,0-1.8-2H3.8A1.914,1.914,0,0,0,2,5V9a1.907,1.907,0,0,0,1.8,2H6.5A1.908,1.908,0,0,0,8.3,9V8h1.8v7.01A2.854,2.854,0,0,0,12.791,18H13.7v1a1.907,1.907,0,0,0,1.8,2h2.7A1.908,1.908,0,0,0,20,19V15a1.907,1.907,0,0,0-1.8-2H15.5a1.908,1.908,0,0,0-1.8,2v1h-.909a.953.953,0,0,1-.891-.99V8h1.8V9A1.914,1.914,0,0,0,15.5,11Z" transform="translate(0 -0.941)" fill="#001f3f"/>
</svg>
