<svg id="published_with_changes_black_24dp" xmlns="http://www.w3.org/2000/svg" width="24" height="24" viewBox="0 0 24 24">
  <rect id="Rectangle_1624" data-name="Rectangle 1624" width="24" height="24" fill="none"/>
  <path id="Path_26" data-name="Path 26" d="M16.95,10.23l-5.66,5.66a1,1,0,0,1-1.41,0L7.05,13.06a1,1,0,0,1,0-1.41h0a1,1,0,0,1,1.41,0l2.12,2.12,4.95-4.95a1,1,0,0,1,1.41,0h0A.987.987,0,0,1,16.95,10.23ZM4,12A7.946,7.946,0,0,1,6.62,6.12L8.15,7.65A.5.5,0,0,0,9,7.29V3a.5.5,0,0,0-.5-.5H4.21a.5.5,0,0,0-.35.85L5.2,4.7A9.977,9.977,0,0,0,9.76,21.75,1.014,1.014,0,0,0,11,20.77h0a1.014,1.014,0,0,0-.79-.98A8,8,0,0,1,4,12Zm18,0a10.015,10.015,0,0,0-7.76-9.75A1.014,1.014,0,0,0,13,3.23h0a1.014,1.014,0,0,0,.79.98,7.961,7.961,0,0,1,3.59,13.67l-1.53-1.53a.5.5,0,0,0-.85.36V21a.5.5,0,0,0,.5.5h4.29a.5.5,0,0,0,.35-.85L18.8,19.3A9.933,9.933,0,0,0,22,12Z" fill="#222"/>
</svg>
