<svg id="Layer_1" data-name="Layer 1" xmlns="http://www.w3.org/2000/svg" width="163.533" height="132.56" viewBox="0 0 163.533 132.56">
  <path id="Path_1259" data-name="Path 1259" d="M30.324,3.694c0-.1,0-.2,0-.294C30.32,3.5,30.32,3.6,30.324,3.694Z" transform="translate(-17.031 -1.91)" fill="#fff"/>
  <path id="Path_1260" data-name="Path 1260" d="M30.28.565c0-.188.009-.377.013-.565C30.289.188,30.28.377,30.28.565Z" transform="translate(-17.008)" fill="#fff"/>
  <g id="Group_614" data-name="Group 614" transform="translate(0 15.976)">
    <path id="Path_1261" data-name="Path 1261" d="M182.122,103.813c.9-1.175,1.7-2.262,2.551-3.322a33.744,33.744,0,0,1,13.719-10.756A26.055,26.055,0,1,1,214.863,139.1c-10.076,2.634-18.886.092-26.328-7.21-3.27-3.208-5.755-7.017-8.371-10.734-2.994-4.247-5.978-8.5-9.042-12.7a22.757,22.757,0,0,0-8.5-7.49c-5.487-2.6-10.747-2.012-15.411,1.8a13.642,13.642,0,0,0-4.834,14.972c1.573,5.834,5.566,9.419,11.527,10.532a14.32,14.32,0,0,0,12.689-3.686,51.448,51.448,0,0,0,6.605-7.832c.311-.416.618-.833.991-1.337,2.319,3.4,4.589,6.732,6.868,10.081-6.592,9.4-14.942,15.446-27.038,14.477A26.1,26.1,0,0,1,152.335,88.2c7.385-1.175,14.021.789,20,5.168a41.76,41.76,0,0,1,9.016,9.41c.228.316.469.618.776,1.026Zm24.689,24.716c10.269.057,17.247-8.547,15.279-17.659A14.592,14.592,0,0,0,206.741,99.5a16.788,16.788,0,0,0-9.6,4.541c-3.147,2.779-5.382,6.3-7.859,9.634a.808.808,0,0,0,.061.723c.539.8,1.122,1.573,1.7,2.345a50.781,50.781,0,0,0,6.605,7.832c2.888,2.564,6.2,4.01,9.16,3.945Z" transform="translate(-73.188 -65.331)" fill="#00b8d4"/>
    <path id="Path_1262" data-name="Path 1262" d="M0,113.22A26.656,26.656,0,0,1,27.139,86.48c15.476,0,27.025,11.159,27.025,25.689,0,1.021-.048,2.13-.14,3.015a1.33,1.33,0,0,1-1.319,1.2H15.713a1.322,1.322,0,0,0-1.28,1.683c1.88,6.162,7.328,10.423,14.95,10.423a18.831,18.831,0,0,0,12.123-4.365,1.317,1.317,0,0,1,1.872.184l5.444,6.732a1.333,1.333,0,0,1-.118,1.806c-4.208,3.993-11.409,7.013-19.881,7.013C12.11,139.851,0,127.851,0,113.22Zm16.024-4.948H38.412a1.329,1.329,0,0,0,1.271-1.722c-1.929-6.027-6.465-9.121-12.325-9.121-6.2,0-10.651,3.633-12.6,9.095a1.325,1.325,0,0,0,1.262,1.749Z" transform="translate(0 -64.552)" fill="#001f3f"/>
    <path id="Path_1263" data-name="Path 1263" d="M235.193,95.909c.228.316.469.618.776,1.026.193-.25.377-.491.557-.732a1.318,1.318,0,0,0,.267-.8V83.808a1.33,1.33,0,0,0-1.328-1.328H225.138a1.33,1.33,0,0,0-1.328,1.328v.381a1.311,1.311,0,0,0,.614,1.109q.881.565,1.749,1.2a41.76,41.76,0,0,1,9.016,9.41Z" transform="translate(-125.715 -62.305)" fill="#001f3f"/>
    <path id="Path_1264" data-name="Path 1264" d="M234.193,181.7c.228-.316.469-.618.776-1.026.193.25.377.491.557.732a1.318,1.318,0,0,1,.267.8V193.8a1.33,1.33,0,0,1-1.328,1.328H224.138a1.33,1.33,0,0,1-1.328-1.328v-.381a1.311,1.311,0,0,1,.614-1.109q.881-.565,1.749-1.2a41.76,41.76,0,0,0,9.016-9.41Z" transform="translate(-125.153 -117.459)" fill="#001f3f"/>
    <path id="Path_1265" data-name="Path 1265" d="M354.991,165.16a25.91,25.91,0,0,1-11.847,17.229,1.33,1.33,0,0,0-.644,1.131h0a1.33,1.33,0,0,0,1.328,1.328h10.326a1.33,1.33,0,0,0,1.328-1.328V165.16H355Z" transform="translate(-192.383 -108.747)" fill="#001f3f"/>
    <path id="Path_1266" data-name="Path 1266" d="M356.218,78.864a26.529,26.529,0,0,1,.254,3.66V37.778a1.33,1.33,0,0,0-1.328-1.328H344.818a1.33,1.33,0,0,0-1.328,1.328V59.29a1.33,1.33,0,0,0,.64,1.126,25.775,25.775,0,0,1,12.088,18.448Z" transform="translate(-192.94 -36.45)" fill="#001f3f"/>
    <text id="PLATFORM" transform="translate(2.739 110.584)" fill="#001f3f" font-size="29" font-family="Helvetica Neue" font-weight="700" font-style="italic"><tspan x="0" y="0">PL</tspan><tspan y="0" letter-spacing="-0.09em">A</tspan><tspan y="0">TFORM</tspan></text>
    <rect id="Rectangle_1886" data-name="Rectangle 1886" width="158.488" height="1.039" transform="translate(4.164 82.492)" fill="#759be0"/>
  </g>
</svg>
