<svg xmlns="http://www.w3.org/2000/svg" width="407.954" height="379.328" viewBox="0 0 407.954 379.328">
  <g id="OBJECTS" transform="translate(-42.62 -54.488)">
    <g id="Group_532" data-name="Group 532" transform="translate(42.62 93.952)">
      <path id="Path_1119" data-name="Path 1119" d="M409.038,455.433H51.019a8.4,8.4,0,0,1-8.4-8.4h0a8.4,8.4,0,0,1,8.4-8.4H409.038a8.4,8.4,0,0,1,8.4,8.4h0A8.4,8.4,0,0,1,409.038,455.433Z" transform="translate(-42.62 -115.57)" fill="#00b8d4" opacity="0.232"/>
      <path id="Path_1120" data-name="Path 1120" d="M412.667,271.463c-.152-.091-.3-.181-.459-.27-10.862-6.324-23.664-8.759-36.007-11.8-11.464-2.828-24.341-6.63-33.146-14.986-10.7-10.156-9.21-24.147-5.094-36.867,4.319-13.348,8.4-26.788,6.487-40.961a79.171,79.171,0,0,0-21-43.85c-17.925-18.8-45.7-28.767-72.3-25.946-35.7,3.785-65.024,28.4-87.284,55.062-14.606,17.5-23.23,37.363-39.889,53.976C107.5,222.239,89,237.038,75.139,255.646,56.686,280.416,47.7,312,53.692,341.768s27.868,56.927,57.831,67.671c19.083,6.843,40.011,6.983,60.42,7.035,42.388.11,84.834.22,127.086-3,27.807-2.116,55.983-5.8,81.316-16.844S428.1,366.2,436.409,341.024C444.662,316.007,436.075,285.42,412.667,271.463Z" transform="translate(-43.139 -96.306)" fill="#00b8d4" opacity="0.188"/>
      <path id="Path_1121" data-name="Path 1121" d="M71.572,218.756a14.14,14.14,0,0,0-3.641-6.247L65.066,210.3a14.086,14.086,0,0,0-7.145-1.933h-.7a10.662,10.662,0,0,0-5.454,1.219,10.6,10.6,0,0,0-4.555,2.927,10.614,10.614,0,0,0-2.927,4.555,10.662,10.662,0,0,0-1.219,5.454q.253,1.881.506,3.764a14.14,14.14,0,0,0,3.641,6.247l2.865,2.213a14.1,14.1,0,0,0,7.145,1.933h.7a10.66,10.66,0,0,0,5.454-1.219,10.6,10.6,0,0,0,4.555-2.927,10.614,10.614,0,0,0,2.927-4.555,10.662,10.662,0,0,0,1.219-5.454Q71.824,220.638,71.572,218.756Z" transform="translate(-42.645 -102.611)" fill="#00b8d4" opacity="0.174"/>
      <circle id="Ellipse_39" data-name="Ellipse 39" cx="30.588" cy="30.588" r="30.588" transform="translate(346.778 71.237)" fill="rgba(0,184,212,0.43)"/>
    </g>
    <g id="Group_542" data-name="Group 542" transform="translate(49.364 54.488)">
      <g id="Group_535" data-name="Group 535" transform="translate(239.813)">
        <g id="Group_534" data-name="Group 534">
          <g id="Group_533" data-name="Group 533">
            <path id="Path_1122" data-name="Path 1122" d="M320.246,54.7a20.458,20.458,0,0,0-3.8,1.142,3.4,3.4,0,1,1-5.708,3.534,20.656,20.656,0,0,0-2.736,2.9,3.3,3.3,0,0,1,.351.143,3.394,3.394,0,1,1-3.184,5.995,3.248,3.248,0,0,1-.359-.24,20.438,20.438,0,0,0-.929,3.908,3.25,3.25,0,0,1,.421-.058,3.395,3.395,0,1,1-.241,6.751,20.4,20.4,0,0,0,1.156,3.887,3.283,3.283,0,0,1,.381-.3,3.394,3.394,0,0,1,3.6,5.755,3.492,3.492,0,0,1-.469.232,20.7,20.7,0,0,0,2.968,2.8,3.457,3.457,0,0,1,.2-.478,3.394,3.394,0,0,1,5.995,3.184,3.341,3.341,0,0,1-.309.462,20.4,20.4,0,0,0,3.993.936,3.389,3.389,0,1,1,6.711-.773,3.34,3.34,0,0,1-.037.561,20.44,20.44,0,0,0,3.926-1.191,3.389,3.389,0,1,1,5.426-4.023,3.439,3.439,0,0,1,.239.484,20.661,20.661,0,0,0,2.784-2.988,3.355,3.355,0,0,1-.466-.191,3.4,3.4,0,1,1,3.6-5.716,20.473,20.473,0,0,0,.9-3.952,3.386,3.386,0,1,1-.695-6.72,3.338,3.338,0,0,1,.447.029,20.37,20.37,0,0,0-1.178-3.842,3.386,3.386,0,1,1-3.924-5.5,3.3,3.3,0,0,1,.362-.178,20.663,20.663,0,0,0-2.917-2.719,3.2,3.2,0,0,1-.14.342,3.4,3.4,0,1,1-5.785-3.5,20.381,20.381,0,0,0-3.867-.9,3.386,3.386,0,1,1-6.736.583A2.7,2.7,0,0,1,320.246,54.7Zm3.578,8.381a11.8,11.8,0,1,1-11.376,12.211A11.8,11.8,0,0,1,323.824,63.081Z" transform="translate(-303.879 -54.488)" fill="rgba(0,184,212,0.43)"/>
          </g>
        </g>
      </g>
      <g id="Group_537" data-name="Group 537" transform="translate(0 51.644)">
        <ellipse id="Ellipse_40" data-name="Ellipse 40" cx="38.206" cy="35.059" rx="38.206" ry="35.059" fill="#00b8d4" opacity="0.099"/>
        <g id="Group_536" data-name="Group 536" transform="translate(5.742 12.344)">
          <path id="Path_1123" data-name="Path 1123" d="M87.408,146.365l-29.8-9.537a26.814,26.814,0,0,0-1.761,9.537c0,15.887,14.246,28.959,31.558,28.959a33.731,33.731,0,0,0,16.239-4.128Z" transform="translate(-55.85 -123.109)" fill="#00b8d4"/>
          <path id="Path_1124" data-name="Path 1124" d="M91.023,146.361l16.446,24.715a30.252,30.252,0,0,0,11.076-10.545,27.125,27.125,0,0,0,4.036-14.17Z" transform="translate(-57.829 -123.646)" fill="rgba(0,184,212,0.5)"/>
          <path id="Path_1125" data-name="Path 1125" d="M91.214,143.612l31.554-.4a26.976,26.976,0,0,0-2.748-11.426,29.178,29.178,0,0,0-7.451-9.495Z" transform="translate(-57.84 -122.291)" fill="#fefeff"/>
        </g>
      </g>
      <g id="Group_538" data-name="Group 538" transform="translate(112.153 20.424)">
        <rect id="Rectangle_1863" data-name="Rectangle 1863" width="11.425" height="27.462" transform="translate(6.122 31.987)" fill="#00b8d4"/>
        <rect id="Rectangle_1864" data-name="Rectangle 1864" width="11.425" height="40.901" transform="translate(23.784 18.547)" fill="#00b8d4"/>
        <rect id="Rectangle_1865" data-name="Rectangle 1865" width="11.425" height="59.449" transform="translate(41.447)" fill="#00b8d4"/>
        <rect id="Rectangle_1866" data-name="Rectangle 1866" width="11.425" height="33.448" transform="translate(59.108 26.001)" fill="#00b8d4"/>
        <path id="Path_1126" data-name="Path 1126" d="M168.607,76.738V135.36h78.079" transform="translate(-168.607 -76.164)" fill="none" stroke="#628aec" stroke-width="0.876"/>
      </g>
      <g id="Group_541" data-name="Group 541" transform="translate(255.447 38.227)">
        <g id="Group_540" data-name="Group 540">
          <g id="Group_539" data-name="Group 539">
            <path id="Path_1127" data-name="Path 1127" d="M352.625,95.414a40.085,40.085,0,0,0-7.479,2.246,6.587,6.587,0,0,1,.43.555,6.679,6.679,0,1,1-11.652,6.393,40.661,40.661,0,0,0-5.379,5.7,6.674,6.674,0,1,1-6.274,11.6,40.108,40.108,0,0,0-1.826,7.685,6.658,6.658,0,1,1,1.3,13.223,6.549,6.549,0,0,1-.947-.062,40.193,40.193,0,0,0,2.273,7.643,6.514,6.514,0,0,1,.749-.58,6.673,6.673,0,0,1,7.078,11.314,6.59,6.59,0,0,1-.923.456,40.714,40.714,0,0,0,5.835,5.512,6.5,6.5,0,0,1,.385-.942,6.673,6.673,0,0,1,11.786,6.26,6.6,6.6,0,0,1-.607.91,40.193,40.193,0,0,0,7.851,1.841,6.672,6.672,0,1,1,13.122-.417,40.142,40.142,0,0,0,7.72-2.342,6.673,6.673,0,1,1,11.138-6.959,40.677,40.677,0,0,0,5.474-5.874,6.588,6.588,0,0,1-.917-.375,6.673,6.673,0,1,1,6.26-11.786,6.572,6.572,0,0,1,.82.548,40.1,40.1,0,0,0,1.777-7.771,6.469,6.469,0,0,1-.894.122,6.677,6.677,0,1,1,.408-13.279,40.216,40.216,0,0,0-2.315-7.555,6.511,6.511,0,0,1-.639.5,6.673,6.673,0,0,1-7.077-11.314,6.56,6.56,0,0,1,.713-.351,40.694,40.694,0,0,0-5.736-5.346,6.517,6.517,0,0,1-.275.671,6.673,6.673,0,0,1-11.786-6.26,6.6,6.6,0,0,1,.411-.616,40.137,40.137,0,0,0-7.6-1.762,6.316,6.316,0,0,1,.091.674,6.673,6.673,0,1,1-13.337.472A6.367,6.367,0,0,1,352.625,95.414Zm6.894,12.491a27.192,27.192,0,1,1-26.213,28.137A27.193,27.193,0,0,1,359.519,107.905Z" transform="translate(-320.445 -94.994)" fill="rgba(0,184,212,0.43)"/>
          </g>
        </g>
      </g>
    </g>
    <g id="Group_572" data-name="Group 572" transform="translate(112.624 106.886)">
      <g id="Group_548" data-name="Group 548" transform="translate(143.33)">
        <g id="Group_543" data-name="Group 543" transform="translate(17.983 1.776)">
          <path id="Path_1128" data-name="Path 1128" d="M311.606,130.716c-.82-.6-1.838-1.106-2.155-2.071-.511-1.555,1.156-3.174.745-4.757-.345-1.331-1.925-1.868-3.284-2.071s-2.919-.391-3.7-1.525c-.646-.944-.495-2.194-.646-3.329a6.1,6.1,0,0,0-4.279-4.943c-2.363-.67-4.42,1.472-6.392,2.332a6.791,6.791,0,0,0-3.949,5.094,16.266,16.266,0,0,0,.354,6.743,48.167,48.167,0,0,1,1.295,6.672,19.589,19.589,0,0,1-1.067,7.119,7.439,7.439,0,0,0,.292,5.366c.856,1.467,2.588,2.151,4.219,2.621a23.048,23.048,0,0,0,9.763.915,13.147,13.147,0,0,0,8.087-4.279,10.607,10.607,0,0,0,3.216-4.432C315.321,136.889,314.431,132.781,311.606,130.716Z" transform="translate(-287.73 -111.892)" fill="#485070"/>
          <path id="Path_1129" data-name="Path 1129" d="M295.458,119.56a5.361,5.361,0,0,1-.5,4.134c-.234.406-.6.82-1.071.787-.538-.038-.838-.628-1.008-1.139a18.426,18.426,0,0,1-.883-4.358c-.072-.909.1-2.547,1.388-2.233C294.388,116.994,295.2,118.685,295.458,119.56Z" transform="translate(-287.97 -112.163)" fill="#ff6ea1"/>
        </g>
        <path id="Path_1130" data-name="Path 1130" d="M294.143,142.976c-.95,3.314-6.341,4.916-9.443,1.095-.38-.469-.733-.963-1.076-1.46-3.345.657-8.32,2.114-10.555,4.827a8.5,8.5,0,0,0-1.395,3.082,122.993,122.993,0,0,0-2.9,12.061,2.733,2.733,0,0,0-.013,1.4,3.112,3.112,0,0,0,1.157,1.27c4.622,3.645,5.837,9.529,7.357,14.849,2.308,8.074,3.373,19.24,5.681,27.313,7.562.581,39.068-6.566,42.859-9.886-5.436-9.788-9.836-27.447-11.56-39.734-.73-5.206-2.774-10.164-4.765-15.038-.466-1.141-.888-3.775-1.752-4.514-1.15-.983-12.13.679-13.292.717q.062.972.089,1.946A6.668,6.668,0,0,1,294.143,142.976Z" transform="translate(-268.675 -111.581)" fill="#ff6ea1"/>
        <g id="Group_544" data-name="Group 544" transform="translate(12.754 17.941)">
          <g id="XMLID_18_">
            <g id="XMLID_19_">
              <path id="Path_1131" data-name="Path 1131" d="M283.674,137.134a14.558,14.558,0,0,0-1.485-3.261,9.319,9.319,0,0,0,5.17-1.758,15.792,15.792,0,0,0,2.081-1.832c.23-.235.581-.833.949-1.263-.5.58.729,3.851.975,4.52a12,12,0,0,0,2.237,3.893c.993,1.1,1.643,1.287,1.818,2.844a11.433,11.433,0,0,1-.721,4.991,4.756,4.756,0,0,1-1.722,2.48,4.4,4.4,0,0,1-3.469.308c-1.954-.512-4.636-2.141-5.334-4.183-.366-1.07.044-1.618.142-2.714A10.609,10.609,0,0,0,283.674,137.134Z" transform="translate(-282.189 -129.021)" fill="#ffc1a6"/>
            </g>
          </g>
          <g id="XMLID_16_">
            <g id="XMLID_17_">
              <path id="Path_1132" data-name="Path 1132" d="M284.333,140.624c0-.11,0-.22-.009-.331a15.178,15.178,0,0,0-2.135-6.419,9.319,9.319,0,0,0,5.17-1.758,15.792,15.792,0,0,0,2.081-1.832c.23-.235.581-.833.949-1.263.056.607.141,1.207.249,1.8A12.688,12.688,0,0,1,284.333,140.624Z" transform="translate(-282.189 -129.021)" fill="#e3856d"/>
            </g>
          </g>
        </g>
        <g id="Group_547" data-name="Group 547" transform="translate(1.951)">
          <path id="Path_1133" data-name="Path 1133" d="M271.24,125.934a14.479,14.479,0,0,0,4.965,7.777,6.047,6.047,0,0,0,2.225,1.228,2.833,2.833,0,0,0,2.437-.413c.952-.754,1.113-2.115,1.182-3.328a27.988,27.988,0,0,0-.216-6.8,10.8,10.8,0,0,0-3.054-5.973c-1.367-1.265-5.117-3.1-6.766-1.357C270.22,118.958,270.683,123.671,271.24,125.934Z" transform="translate(-270.742 -110.367)" fill="#485070"/>
          <g id="XMLID_12_" transform="translate(2.405 7.407)">
            <g id="XMLID_13_">
              <path id="Path_1134" data-name="Path 1134" d="M273.333,120.67c.321-2.138,2.741-.55,4.7-1.458,1.707-.789,3-1.471,4.923-1.336a7.045,7.045,0,0,1,4.616,2.048c.323.339.619.685.893,1.034a24.427,24.427,0,0,1,1.989,3.939l.02.092a13.283,13.283,0,0,1-1.772,7.568,6.936,6.936,0,0,1-6.018,3.635,5.932,5.932,0,0,1-3.83-1.488,13.152,13.152,0,0,1-2.815-3.719C274.891,128.9,272.98,123.025,273.333,120.67Z" transform="translate(-273.29 -117.859)" fill="#ffc1a6"/>
            </g>
          </g>
          <path id="Path_1135" data-name="Path 1135" d="M282.586,124.244A31.694,31.694,0,0,1,275.7,122.3,7.74,7.74,0,0,1,272,118.624c-.717-1.654-.223-2.811.723-4.242a10.276,10.276,0,0,1,5.879-4.167c2.369-.623,5.335.3,7.607,1.086a9.268,9.268,0,0,1,4.153,2.7c1.851,2.235,2.481,6.088,2.335,8.913a15.216,15.216,0,0,1-.713,3.438c-.268.941-.748,2.009-1.843,2.145-.751.093-2.255-2.049-3.022-2.526a14.023,14.023,0,0,0-3.947-1.585C282.978,124.339,282.782,124.29,282.586,124.244Z" transform="translate(-270.793 -110.01)" fill="#485070"/>
          <g id="Group_545" data-name="Group 545" transform="translate(3.629 14.796)">
            <path id="Path_1136" data-name="Path 1136" d="M279.442,127.767a.684.684,0,1,0,.612-.75A.686.686,0,0,0,279.442,127.767Z" transform="translate(-274.86 -125.763)" fill="#485070"/>
            <path id="Path_1137" data-name="Path 1137" d="M280.44,125.731a2.111,2.111,0,0,0-1.367.179" transform="translate(-274.839 -125.688)" fill="none" stroke="#485070" stroke-linecap="round" stroke-width="0.75"/>
            <path id="Path_1138" data-name="Path 1138" d="M274.955,128.974a.684.684,0,1,0,.612-.75A.686.686,0,0,0,274.955,128.974Z" transform="translate(-274.608 -125.831)" fill="#485070"/>
            <path id="Path_1139" data-name="Path 1139" d="M275.954,126.938a2.11,2.11,0,0,0-1.367.179" transform="translate(-274.587 -125.756)" fill="none" stroke="#485070" stroke-linecap="round" stroke-width="0.75"/>
            <path id="Path_1140" data-name="Path 1140" d="M277.552,129.1a2.378,2.378,0,0,1-.273,1.753.693.693,0,0,0-.156.435.409.409,0,0,0,.361.307,1.178,1.178,0,0,0,.5-.075" transform="translate(-274.73 -125.88)" fill="none" stroke="#485070" stroke-linecap="round" stroke-width="0.75"/>
            <path id="Path_1141" data-name="Path 1141" d="M281.1,132.728a2.741,2.741,0,0,1-2.294.846" transform="translate(-274.824 -126.084)" fill="none" stroke="#485070" stroke-linecap="round" stroke-width="0.75"/>
          </g>
          <g id="Group_546" data-name="Group 546" transform="translate(14.739 12.117)">
            <path id="Path_1142" data-name="Path 1142" d="M291.372,125.106a2.513,2.513,0,1,1-2.756-2.243A2.513,2.513,0,0,1,291.372,125.106Z" transform="translate(-286.36 -122.85)" fill="#ffc1a6"/>
            <path id="Path_1143" data-name="Path 1143" d="M289.356,124.325a1.079,1.079,0,0,0-1.005,1.539.737.737,0,0,1,1.287.477" transform="translate(-286.466 -122.933)" fill="none" stroke="#485070" stroke-linecap="round" stroke-linejoin="round" stroke-width="0.75"/>
          </g>
        </g>
      </g>
      <g id="Group_549" data-name="Group 549" transform="translate(0 177.663)">
        <path id="Path_1144" data-name="Path 1144" d="M341.037,426.464H141.956a8.248,8.248,0,0,1-8.248-8.248v-111.7a8.248,8.248,0,0,1,8.248-8.248H341.037a8.248,8.248,0,0,1,8.248,8.248v111.7A8.248,8.248,0,0,1,341.037,426.464Z" transform="translate(-117.75 -298.267)" fill="#dce4ff" stroke="#485070" stroke-width="0.75"/>
        <path id="Path_1145" data-name="Path 1145" d="M364.292,434.281H116.8a10.29,10.29,0,0,0,10.29,10.29H354A10.292,10.292,0,0,0,364.292,434.281Z" transform="translate(-116.798 -305.921)" fill="#00b8d4" stroke="#485070" stroke-width="0.75" opacity="0.691"/>
        <path id="Path_1146" data-name="Path 1146" d="M337.975,422.74H145.635a6.446,6.446,0,0,1-6.446-6.446V310.047a6.446,6.446,0,0,1,6.446-6.446h192.34a6.446,6.446,0,0,1,6.446,6.446V416.294A6.446,6.446,0,0,1,337.975,422.74Z" transform="translate(-118.058 -298.567)" fill="#545d78"/>
      </g>
      <path id="Path_1147" data-name="Path 1147" d="M250.772,300.725a1.6,1.6,0,1,1-1.6-1.6A1.6,1.6,0,0,1,250.772,300.725Z" transform="translate(-124.157 -120.653)" fill="#333"/>
      <g id="Group_566" data-name="Group 566" transform="translate(42.292 61.781)">
        <g id="Group_550" data-name="Group 550">
          <rect id="Rectangle_1867" data-name="Rectangle 1867" width="239.364" height="162.909" transform="translate(0 239.364) rotate(-90)" fill="#fefeff"/>
        </g>
        <g id="Group_559" data-name="Group 559" transform="translate(24.982 175.974)">
          <g id="Group_558" data-name="Group 558" transform="translate(12.704 7.102)">
            <g id="Group_551" data-name="Group 551" transform="translate(1.858 2.304)">
              <path id="Path_1148" data-name="Path 1148" d="M260.385,406.9l-21.678-27.008-18.852,24.157-16.342-17.658,2.136-1.977,14.017,15.146L238.674,375.2l21.112,26.3,12.253-25.02,25.868-4.574.507,2.866L274,379.092Z" transform="translate(-203.513 -371.909)" fill="#e6edff"/>
            </g>
            <g id="Group_552" data-name="Group 552" transform="translate(92.771)">
              <path id="Path_1149" data-name="Path 1149" d="M307.319,373.2a3.736,3.736,0,1,0-3.736,3.736A3.736,3.736,0,0,0,307.319,373.2Z" transform="translate(-299.847 -369.468)" fill="#ff6ea1"/>
            </g>
            <g id="Group_553" data-name="Group 553" transform="translate(54.85 30.859)">
              <path id="Path_1150" data-name="Path 1150" d="M267.137,405.9a3.736,3.736,0,1,0-3.736,3.736A3.736,3.736,0,0,0,267.137,405.9Z" transform="translate(-259.665 -402.167)" fill="#628aec"/>
            </g>
            <g id="Group_554" data-name="Group 554" transform="translate(67.195 4.446)">
              <path id="Path_1151" data-name="Path 1151" d="M280.218,377.915a3.736,3.736,0,1,0-3.736,3.736A3.736,3.736,0,0,0,280.218,377.915Z" transform="translate(-272.746 -374.179)" fill="#ffb861"/>
            </g>
            <g id="Group_555" data-name="Group 555" transform="translate(33.157 4.446)">
              <circle id="Ellipse_41" data-name="Ellipse 41" cx="3.736" cy="3.736" r="3.736" fill="#ffb861"/>
            </g>
            <g id="Group_556" data-name="Group 556" transform="translate(14.815 28.014)">
              <circle id="Ellipse_42" data-name="Ellipse 42" cx="3.736" cy="3.736" r="3.736" fill="#ff6ea1"/>
            </g>
            <g id="Group_557" data-name="Group 557" transform="translate(0 12.767)">
              <path id="Path_1152" data-name="Path 1152" d="M209.016,386.732a3.736,3.736,0,1,0-3.736,3.736A3.736,3.736,0,0,0,209.016,386.732Z" transform="translate(-201.544 -382.996)" fill="#3fd4c7"/>
            </g>
          </g>
          <path id="Path_1153" data-name="Path 1153" d="M188.083,361.942v50.952h113.7" transform="translate(-188.083 -361.942)" fill="none" stroke="#485070" stroke-width="0.75"/>
        </g>
        <g id="Group_565" data-name="Group 565" transform="translate(23.015 17.053)">
          <g id="Group_563" data-name="Group 563" transform="translate(0.8 23.333)">
            <rect id="Rectangle_1868" data-name="Rectangle 1868" width="17.352" height="40.308" transform="translate(10.212 54.253)" fill="#ffb861"/>
            <rect id="Rectangle_1869" data-name="Rectangle 1869" width="17.352" height="60.035" transform="translate(37.038 34.527)" fill="#ff6ea1"/>
            <g id="Group_562" data-name="Group 562" transform="translate(6.976)">
              <g id="Group_561" data-name="Group 561">
                <path id="Path_1154" data-name="Path 1154" d="M194.239,261.081a159.977,159.977,0,0,0,54.546-40.837" transform="translate(-194.239 -218.379)" fill="none" stroke="#485070" stroke-linecap="round" stroke-width="0.75"/>
                <g id="Group_560" data-name="Group 560" transform="translate(52.789)">
                  <path id="Path_1155" data-name="Path 1155" d="M253.521,218.268l-1.235,3.517-.511-1.549-1.6-.323Z" transform="translate(-250.176 -218.268)" fill="#485070"/>
                </g>
              </g>
            </g>
            <rect id="Rectangle_1870" data-name="Rectangle 1870" width="17.352" height="87.258" transform="translate(63.866 7.303)" fill="#3fd4c7"/>
            <rect id="Rectangle_1871" data-name="Rectangle 1871" width="17.352" height="49.095" transform="translate(90.692 45.467)" fill="#628aec"/>
            <path id="Path_1156" data-name="Path 1156" d="M186.847,227.73v85.764H302.789" transform="translate(-186.847 -218.8)" fill="none" stroke="#485070" stroke-width="0.75"/>
          </g>
          <g id="Group_564" data-name="Group 564">
            <rect id="Rectangle_1872" data-name="Rectangle 1872" width="116.427" height="5.863" transform="translate(0.139 126.305)" fill="#e6edff"/>
            <rect id="Rectangle_1873" data-name="Rectangle 1873" width="69.966" height="5.863" transform="translate(23.23 10.24)" fill="#e6edff"/>
            <rect id="Rectangle_1874" data-name="Rectangle 1874" width="116.427" height="5.863" fill="#e6edff"/>
            <rect id="Rectangle_1875" data-name="Rectangle 1875" width="116.427" height="5.863" transform="translate(0.139 137.054)" fill="#e6edff"/>
            <rect id="Rectangle_1876" data-name="Rectangle 1876" width="116.427" height="5.863" transform="translate(0.139 147.803)" fill="#e6edff"/>
          </g>
        </g>
      </g>
      <g id="Group_571" data-name="Group 571" transform="translate(129.269 26.074)">
        <g id="Group_568" data-name="Group 568" transform="translate(13.916)">
          <g id="Group_567" data-name="Group 567" transform="translate(28.919)">
            <path id="Path_1157" data-name="Path 1157" d="M304.522,138.478c-1.357.32-2.7.7-4.042,1.076a1.587,1.587,0,0,0-.636.287,1.522,1.522,0,0,0-.4.867,17.481,17.481,0,0,0,3.063,13.337c.83,1.037,1.814,1.938,2.712,2.916s2.067,1.833,2.862,2.845c.924,1.177,1.315,3.086,1.743,4.5a43.891,43.891,0,0,1,1.811,9.959c.143,2.241.249,4.792,1.97,6.237,1.7,1.433,4.406,1.066,6.166-.3a11.85,11.85,0,0,0,3.506-5.575,44.659,44.659,0,0,0,2.732-17.089c-.257-5.274-1.871-11.628-5.279-15.8-2.281-2.793-6.039-4.041-9.645-4.1A26.954,26.954,0,0,0,304.522,138.478Z" transform="translate(-299.164 -137.639)" fill="#ff6ea1"/>
            <path id="Path_1158" data-name="Path 1158" d="M308.26,170.8q1.878-10.164,3.758-20.327" transform="translate(-299.676 -138.361)" fill="none" stroke="#485070" stroke-width="0.75"/>
            <path id="Path_1159" data-name="Path 1159" d="M309.647,151.827l1.3,3.32" transform="translate(-299.754 -138.437)" fill="none" stroke="#485070" stroke-width="0.75"/>
          </g>
          <path id="Path_1160" data-name="Path 1160" d="M281.8,186.6a4.721,4.721,0,0,1,1.5-.279c4.577-.1,9.049-.573,13.669-1.037q4.639-.466,9.268-.533c2.486-.036,5.363.5,7.783-.178,2.562-.724,4.305-1.442,5.587-3.562a33.269,33.269,0,0,0,1.676-3.137,3.186,3.186,0,0,0,.434-1.922c-.2-.931-1.227-1.5-2.237-1.867-2.147-.789-3.474-2.018-5.938-2.27a25.342,25.342,0,0,0-7.661.6c-4.909,1.031-9.821,1.456-14.64,2.89a129.2,129.2,0,0,0-15.8,6.186,16.5,16.5,0,0,0-5.192,3.138,5.432,5.432,0,0,0-.534,7.37,2.468,2.468,0,0,0,2.215.934c.9-.16,1.507-1.348.749-1.7C277.645,193.142,277.776,188.047,281.8,186.6Z" transform="translate(-268.521 -139.557)" fill="#ffc1a6"/>
        </g>
        <g id="Group_570" data-name="Group 570" transform="translate(0 7.888)">
          <g id="Group_569" data-name="Group 569">
            <path id="Path_1161" data-name="Path 1161" d="M266.161,188.3l.034-.3c-.076.186-.152.372-.227.559Z" transform="translate(-254.461 -148.361)" fill="#ff6ea1"/>
            <path id="Path_1162" data-name="Path 1162" d="M278.33,147.616a3.278,3.278,0,0,0-1.261-1.313c-1.6-.935-4.962.5-6.4,1.3a9.341,9.341,0,0,0-.9.558,23.4,23.4,0,0,0-4.587,4.057c-.461.5-.912,1.02-1.357,1.534-6.658,7.688-10.958,16.158-9.881,26.452.23,2.2.67,4.582,2.312,6.07a5.863,5.863,0,0,0,4.937,1.268,8.885,8.885,0,0,0,4.368-2.323l-.048.421c.082-.2.163-.4.245-.6,2.626-2.547,3.24-6.071,3.876-9.5,0-.008,0-.015,0-.024l6.26-15.366C276.892,157.7,280.112,150.966,278.33,147.616Z" transform="translate(-253.775 -145.997)" fill="#ff6ea1"/>
          </g>
          <path id="Path_1163" data-name="Path 1163" d="M267.723,225.45c2.873-4.693-2.364-5.47-3.125-9.662a4.506,4.506,0,0,1-.015-1.529c.73-4.57,1.053-9.081,1.414-13.738q.361-4.677,1.134-9.294c.347-2.077,1.154-4.375,1.252-6.534-.051-.687-.128-1.377-.241-2.049a7.155,7.155,0,0,0-4.31-3.522,8.228,8.228,0,0,0-7.547,1.5,20.628,20.628,0,0,0-1.4,2.509,26.081,26.081,0,0,0-.56,6.884c.172,5.018-.281,9.961.323,14.939a121.227,121.227,0,0,0,3.516,16.507,15.377,15.377,0,0,0,2.3,5.567,5.718,5.718,0,0,0,7.512,1.466,2.616,2.616,0,0,0,1.367-2.087C269.341,225.492,268.225,224.741,267.723,225.45Z" transform="translate(-253.805 -147.842)" fill="#ffc1a6"/>
          <path id="Path_1164" data-name="Path 1164" d="M268.949,181.995a53.577,53.577,0,0,1,7.169-17.358" transform="translate(-254.629 -147.046)" fill="none" stroke="#485070" stroke-width="0.75"/>
          <path id="Path_1165" data-name="Path 1165" d="M273.991,168.536l2.457-1.584" transform="translate(-254.913 -147.177)" fill="none" stroke="#485070" stroke-width="0.75"/>
        </g>
      </g>
    </g>
    <g id="Group_587" data-name="Group 587" transform="translate(50.505 241.688)">
      <path id="Path_1166" data-name="Path 1166" d="M118.742,293.6c3.513,4.015,4.953,9.428,6.146,14.5l4.629,19.659a23.351,23.351,0,0,1,.771,4.67,34.235,34.235,0,0,1-1.25,8.2c-.763,3.134-2.639,2.941-5.43,2.663-4.415-.439-10.421-1.774-13.4-5.374-1.417-1.711-1.872-4-2.28-6.182q-.842-4.5-1.684-9.008c-2.293-12.268-4.586-24.924-1.991-37.132A23.29,23.29,0,0,1,118.742,293.6Z" transform="translate(-53.908 -254.693)" fill="#fff"/>
      <path id="Path_1167" data-name="Path 1167" d="M125.675,335.09c1.952.926,3.82,2.118,5.7,3.248,2.984,1.8,6.1,3.06,9.155,4.728a9.1,9.1,0,0,0,2.7,1.111c1.635.289,3.363-.327,5.009-.106,2.2.3,4.08,2.258,4.878,4.854,1.344,4.37-1.8,2.743-3.889,2.361l-4.879-.9a145.385,145.385,0,0,0-19.08-2.077c-3.559-.184-9.83-.1-12.492-3.346-1.294-1.576-2.725-8.452-1.022-10.158a2.613,2.613,0,0,1,1.093-.592,16.569,16.569,0,0,1,10.225-.159A19.92,19.92,0,0,1,125.675,335.09Z" transform="translate(-54.352 -257.379)" fill="#9c5240"/>
      <g id="Group_579" data-name="Group 579" transform="translate(0 51.425)">
        <path id="Path_1168" data-name="Path 1168" d="M120.156,388.321H57.734a3.711,3.711,0,0,1-3.711-3.711h0a3.711,3.711,0,0,1,3.711-3.711h62.422a3.711,3.711,0,0,1,3.711,3.711h0A3.71,3.71,0,0,1,120.156,388.321Z" transform="translate(-51.147 -311.48)" fill="#485070"/>
        <path id="Path_1169" data-name="Path 1169" d="M50.975,335.226V313.32a5.978,5.978,0,0,1,5.979-5.979H105.77a5.978,5.978,0,0,1,5.979,5.979v21.907a5.978,5.978,0,0,1-5.979,5.979H56.954A5.978,5.978,0,0,1,50.975,335.226Z" transform="translate(-50.975 -307.341)" fill="#485070"/>
        <g id="Group_573" data-name="Group 573" transform="translate(7.78 28.357)">
          <rect id="Rectangle_1877" data-name="Rectangle 1877" width="3.775" height="45.053" fill="#485070"/>
        </g>
        <g id="Group_574" data-name="Group 574" transform="translate(48.501 28.357)">
          <rect id="Rectangle_1878" data-name="Rectangle 1878" width="3.775" height="45.053" fill="#485070"/>
        </g>
        <g id="Group_575" data-name="Group 575" transform="translate(33.955 74.975)">
          <rect id="Rectangle_1879" data-name="Rectangle 1879" width="3.775" height="54.726" fill="#485070"/>
        </g>
        <g id="Group_576" data-name="Group 576" transform="translate(5.581 74.975)">
          <rect id="Rectangle_1880" data-name="Rectangle 1880" width="3.775" height="54.726" fill="#485070"/>
        </g>
        <g id="Group_577" data-name="Group 577" transform="translate(66.09 74.975)">
          <rect id="Rectangle_1881" data-name="Rectangle 1881" width="3.775" height="54.726" fill="#485070"/>
        </g>
        <g id="Group_578" data-name="Group 578" transform="translate(46.721 74.975)">
          <rect id="Rectangle_1882" data-name="Rectangle 1882" width="3.775" height="54.726" fill="#485070"/>
        </g>
      </g>
      <g id="Group_581" data-name="Group 581" transform="translate(31.823 90.152)">
        <path id="Path_1170" data-name="Path 1170" d="M164,407.139c-2.14.449-3.611.558-6.139.914-3.677.518-7.365.948-11.063,1.267.964,6.652,1.842,12.5,2.065,13.678.966,5.094.433,17.862,2.708,22.707,2.768.344,5.165-.112,7.753-.325C160.694,432.611,161.823,419.8,164,407.139Z" transform="translate(-88.191 -351.684)" fill="#cf9378"/>
        <path id="Path_1171" data-name="Path 1171" d="M141.22,415.039a16.041,16.041,0,0,0,.239,3.123,17.143,17.143,0,0,0,11.531,4.891,19.86,19.86,0,0,0,7.1-.99q.406-7.476.888-14.947c.414-6.482.75-12.962,1.556-19.41a93.55,93.55,0,0,0,.1-17.426c-1.652-6.332-5.858-8.061-5.858-8.061s-11.761-4.654-20.766-6.631c-11.055-2.427-22.291-4.228-33.41-6.649-5.343-1.164-14.283-.948-17.042,4.893-3.192,6.759,3.172,15.744,8.3,19.647,5.3,4.037,11.847,6.08,18.359,7.5a119.308,119.308,0,0,0,28.1,2.7C140,383.684,141.205,412.7,141.22,415.039Z" transform="translate(-84.696 -348.377)" fill="#001f3f"/>
        <path id="Path_1172" data-name="Path 1172" d="M140.291,383.737c.018-.018.038-.033.055-.051-2.054-2.04-3.994-4.2-6.047-6.239-3.058-3.034-6.027-6.163-9.064-9.219-6.033-6.072-12.1-12.114-18-18.314q-2.322-.474-4.639-.975c-5.343-1.165-14.283-.948-17.042,4.893-3.192,6.759,3.172,15.744,8.3,19.647,5.3,4.037,11.847,6.08,18.359,7.5a119.3,119.3,0,0,0,28.1,2.7C140.3,383.683,140.3,383.714,140.291,383.737Z" transform="translate(-84.696 -348.377)" fill="#485070"/>
        <path id="Path_1173" data-name="Path 1173" d="M143.7,387.183c.009-2.954.411-6.562.421-9.516" transform="translate(-88.016 -350.025)" fill="none" stroke="#485070" stroke-width="0.398"/>
        <path id="Path_1174" data-name="Path 1174" d="M150.143,359.636c-7.907-2.543-15.122-4.9-26.729-6.466" transform="translate(-86.875 -348.647)" fill="none" stroke="#485070" stroke-width="0.75"/>
        <g id="Group_580" data-name="Group 580" transform="translate(61.605 85.863)">
          <path id="Path_1175" data-name="Path 1175" d="M175.724,454.584h-24.4a.908.908,0,0,1-.908-.908v-1.832h25.311v2.74Z" transform="translate(-149.999 -440.062)" fill="#b3b3b3"/>
          <path id="Path_1176" data-name="Path 1176" d="M175.343,452.054a2.67,2.67,0,0,0,.239-.4,3.469,3.469,0,0,0-1.282-3.933,11.366,11.366,0,0,0-4.2-1.817,70,70,0,0,0-9.512-2.19c-.863-.118-10.078-.963-10.038-1.379l-.428,6.971a7.306,7.306,0,0,0-.01,2.75Z" transform="translate(-149.974 -439.527)" fill="#485070"/>
          <path id="Path_1177" data-name="Path 1177" d="M154.939,440.248a4.378,4.378,0,0,1,5.1-.14,5.445,5.445,0,0,1,2.247,4.722,1.287,1.287,0,0,1-.327.929,1.433,1.433,0,0,1-.96.244l-4.361.052c-.907.011-2.063.222-2.694-.595C152.826,444.023,153.859,441.328,154.939,440.248Z" transform="translate(-150.17 -439.36)" fill="#485070"/>
          <path id="Path_1178" data-name="Path 1178" d="M165.064,444.5a2,2,0,0,0-2.028,1.261" transform="translate(-150.709 -439.649)" fill="none" stroke="#b3b3b3" stroke-linecap="round" stroke-width="0.75"/>
          <path id="Path_1179" data-name="Path 1179" d="M165.744,446.774a2.6,2.6,0,0,1,2.148-1.228" transform="translate(-150.861 -439.708)" fill="none" stroke="#b3b3b3" stroke-linecap="round" stroke-width="0.75"/>
          <path id="Path_1180" data-name="Path 1180" d="M169.135,447.16a1.474,1.474,0,0,1,1.337-.913" transform="translate(-151.052 -439.747)" fill="none" stroke="#b3b3b3" stroke-linecap="round" stroke-width="0.75"/>
        </g>
      </g>
      <g id="Group_583" data-name="Group 583" transform="translate(22.594 88.317)">
        <path id="Path_1181" data-name="Path 1181" d="M120,403.424q-4.86.685-9.749,1.134c2.462,12.112,3.6,24.443,5.607,36.632,2.765-.01,5.287-.6,8.226-.531.56-3.691,1.686-25.606,3.42-38.46A61.635,61.635,0,0,1,120,403.424Z" transform="translate(-76.905 -349.571)" fill="#cf9378"/>
        <path id="Path_1182" data-name="Path 1182" d="M108.746,417.524c.67,2.728,1.451,4.4,4.138,5.468a15.548,15.548,0,0,0,7.371,1.035,12.344,12.344,0,0,0,6.083-2.817s3.468-51.709-.847-58.335c-5.279-8.108-16.836-9.77-25.841-11.747-7.889-1.732-15.87-3.147-23.834-4.7-1.943,7.373-.54,16.043,2.278,22.843l.043.1a15.66,15.66,0,0,0,13.124,9.445,118.107,118.107,0,0,0,12.687.4C103.9,379.223,106.348,407.758,108.746,417.524Z" transform="translate(-74.917 -346.433)" fill="#001f3f"/>
        <path id="Path_1183" data-name="Path 1183" d="M105.755,382.572c.009-2.954.411-6.561.421-9.516" transform="translate(-76.652 -347.931)" fill="none" stroke="#485070" stroke-width="0.398"/>
        <g id="Group_582" data-name="Group 582" transform="translate(37.879 87.301)">
          <path id="Path_1184" data-name="Path 1184" d="M140.8,454.165H116.4a.908.908,0,0,1-.908-.908v-1.832H140.8v2.74Z" transform="translate(-115.079 -439.643)" fill="#b3b3b3"/>
          <path id="Path_1185" data-name="Path 1185" d="M140.422,451.634a2.673,2.673,0,0,0,.239-.4,3.469,3.469,0,0,0-1.282-3.933,11.367,11.367,0,0,0-4.2-1.817,70,70,0,0,0-9.512-2.19c-.863-.118-10.078-.963-10.038-1.379q-.214,3.485-.427,6.971a7.306,7.306,0,0,0-.01,2.75Z" transform="translate(-115.054 -439.107)" fill="#485070"/>
          <path id="Path_1186" data-name="Path 1186" d="M120.017,439.828a4.378,4.378,0,0,1,5.1-.14,5.445,5.445,0,0,1,2.247,4.722,1.288,1.288,0,0,1-.327.929,1.434,1.434,0,0,1-.96.244l-4.361.052c-.907.011-2.063.222-2.694-.595C117.9,443.6,118.937,440.908,120.017,439.828Z" transform="translate(-115.25 -438.94)" fill="#485070"/>
          <path id="Path_1187" data-name="Path 1187" d="M130.143,444.081a2,2,0,0,0-2.028,1.261" transform="translate(-115.789 -439.229)" fill="none" stroke="#b3b3b3" stroke-linecap="round" stroke-width="0.75"/>
          <path id="Path_1188" data-name="Path 1188" d="M130.822,446.355a2.6,2.6,0,0,1,2.148-1.228" transform="translate(-115.941 -439.288)" fill="none" stroke="#b3b3b3" stroke-linecap="round" stroke-width="0.75"/>
          <path id="Path_1189" data-name="Path 1189" d="M134.214,446.74a1.474,1.474,0,0,1,1.337-.913" transform="translate(-116.132 -439.327)" fill="none" stroke="#b3b3b3" stroke-linecap="round" stroke-width="0.75"/>
        </g>
      </g>
      <g id="Group_584" data-name="Group 584" transform="translate(18.348 29.856)">
        <path id="Path_1190" data-name="Path 1190" d="M74.5,352.939q.334,1.784.669,3.568c4.107-2.159,9.019-1.708,13.659-1.716a62.94,62.94,0,0,0,29.259-7.309,39.294,39.294,0,0,1-1.093-7.5c-.014-2.585-1.082-5.089-1.082-7.682-.17-3.5-.034-7.009.138-10.507.327-6.626.775-13.328-.463-19.845a29.144,29.144,0,0,0-4.955-11.875c-1.18-1.6-2.814-3.67-4.625-4.589-1.92-.975-4.8-.648-6.956-.839a18.5,18.5,0,0,0-4.741-.011,15.886,15.886,0,0,0-5.372,2.266C80,292.265,78.913,300.911,76.223,310.217c-1.344,4.648-3.449,9.048-4.8,13.7a26.43,26.43,0,0,0-1,8c.059,2.441,1,4.618,1.448,7.017Q73.187,345.934,74.5,352.939Z" transform="translate(-70.417 -284.486)" fill="#fff"/>
        <path id="Path_1191" data-name="Path 1191" d="M101.531,293.627a8.6,8.6,0,0,0,6.021,2.015,3.771,3.771,0,0,0,2.12-.665,1.817,1.817,0,0,0,.679-1.993" transform="translate(-72.168 -284.964)" fill="none" stroke="#485070" stroke-linecap="round" stroke-width="0.398"/>
        <path id="Path_1192" data-name="Path 1192" d="M99.355,314.32a21.662,21.662,0,0,0,13.227,13.923" transform="translate(-72.046 -286.165)" fill="none" stroke="#485070" stroke-linecap="round" stroke-width="0.398"/>
        <path id="Path_1193" data-name="Path 1193" d="M105.492,319.545a10.035,10.035,0,0,0,6.523,3.507" transform="translate(-72.391 -286.459)" fill="none" stroke="#485070" stroke-linecap="round" stroke-width="0.398"/>
        <path id="Path_1194" data-name="Path 1194" d="M93.4,319.135a46.383,46.383,0,0,0,11.876,19.217" transform="translate(-71.71 -286.436)" fill="none" stroke="#485070" stroke-linecap="round" stroke-width="0.398"/>
        <path id="Path_1195" data-name="Path 1195" d="M115.194,293.288c2.567,4.418,2.6,6.931,3.177,10.828a82.737,82.737,0,0,1,.883,13.176c-.1,7.39-1.729,14.161-.078,21.491" transform="translate(-72.937 -284.981)" fill="none" stroke="#485070" stroke-width="0.398"/>
      </g>
      <g id="XMLID_7_" transform="translate(42.172 19.933)">
        <g id="XMLID_8_">
          <path id="Path_1196" data-name="Path 1196" d="M108.721,282.677a15.645,15.645,0,0,1,1.594-3.5,10,10,0,0,1-5.547-1.886,17.049,17.049,0,0,1-2.233-1.965c-.247-.252-.624-.894-1.018-1.355-.411,4.444-2.065,8.623-5.855,11.161a14.77,14.77,0,0,0,5.725,5.428c1.976,1.146,6.9,3.361,7.01-.643.036-1.31-.484-2.521-.372-3.851A15.652,15.652,0,0,1,108.721,282.677Z" transform="translate(-95.662 -273.972)" fill="#cf9378"/>
        </g>
      </g>
      <g id="XMLID_2_" transform="translate(47.76 19.932)">
        <g id="XMLID_3_">
          <path id="Path_1197" data-name="Path 1197" d="M108.348,286.421c0-.118,0-.236.01-.356a16.278,16.278,0,0,1,2.29-6.887,10,10,0,0,1-5.547-1.887,17.046,17.046,0,0,1-2.233-1.965c-.247-.252-.624-.894-1.018-1.355-.06.651-.151,1.3-.267,1.931A13.607,13.607,0,0,0,108.348,286.421Z" transform="translate(-101.583 -273.971)" fill="#9c5240"/>
        </g>
      </g>
      <path id="Path_1198" data-name="Path 1198" d="M77.248,293.6c-3.513,4.015-4.953,9.428-6.146,14.5l-4.629,19.659c-.535,2.271-1.393,5.375-.89,7.694a9.989,9.989,0,0,0,4.554,6.168c2.332,1.4,5.882,2.038,8.444.849,2.509-1.165,5.38-2.351,7.2-4.551,1.417-1.711,1.871-4,2.28-6.182q.842-4.5,1.684-9.008c2.293-12.268,4.586-24.924,1.991-37.132A23.292,23.292,0,0,0,77.248,293.6Z" transform="translate(-51.788 -254.693)" fill="#fff"/>
      <path id="Path_1199" data-name="Path 1199" d="M92.93,306.987c-5.1,1.329-4.646,7.859-5.107,11.886A118.432,118.432,0,0,1,84.43,336.5" transform="translate(-52.858 -255.897)" fill="none" stroke="#485070" stroke-width="0.398"/>
      <path id="Path_1200" data-name="Path 1200" d="M89.377,310.271a9.735,9.735,0,0,1,3.1-4.553" transform="translate(-53.136 -255.825)" fill="none" stroke="#485070" stroke-width="0.398"/>
      <path id="Path_1201" data-name="Path 1201" d="M85.066,336.408c2.737.6,5.422,1.473,8.108,2.286,4.266,1.29,8.587,2.035,12.92,3.188a15.3,15.3,0,0,0,3.755.66c2.19.021,4.305-.865,6.5-.914a8.832,8.832,0,0,1,7.382,4c2.68,4.1-1.762,3-4.558,2.958l-6.54-.1a252.073,252.073,0,0,0-25.272,1.032c-4.671.393-12.813,1.487-16.968-1.283-2.019-1.347-5.346-7.9-3.493-9.86a3.5,3.5,0,0,1,1.3-.761,27.962,27.962,0,0,1,13.272-1.808A33.41,33.41,0,0,1,85.066,336.408Z" transform="translate(-51.84 -257.51)" fill="#cf9378"/>
      <path id="Path_1202" data-name="Path 1202" d="M152.457,339.872H152.3" transform="translate(-56.677 -257.747)" fill="#dc8b77"/>
      <g id="Group_585" data-name="Group 585" transform="translate(47.284 72.269)">
        <path id="Path_1203" data-name="Path 1203" d="M158.849,361.78H102.223a1.144,1.144,0,0,1-1.144-1.144v-.39a1.144,1.144,0,0,1,1.144-1.144h56.626a1.144,1.144,0,0,1,1.144,1.144v.39A1.144,1.144,0,0,1,158.849,361.78Z" transform="translate(-101.079 -331.098)" fill="#485070"/>
        <path id="Path_1204" data-name="Path 1204" d="M166.814,360.11H116.469l4.381-28.929a2.044,2.044,0,0,1,2-1.753H169.2a1.962,1.962,0,0,1,1.914,2.292Z" transform="translate(-101.945 -329.428)" fill="#757e96"/>
        <circle id="Ellipse_43" data-name="Ellipse 43" cx="3.346" cy="3.346" r="3.346" transform="translate(40.509 11.402)" fill="#fff"/>
      </g>
      <g id="XMLID_14_" transform="translate(47.38 8.184)">
        <g id="XMLID_15_">
          <path id="Path_1205" data-name="Path 1205" d="M119.007,263.56c-.577-2.246-2.985-.289-5.178-1.043-1.908-.656-3.361-1.244-5.4-.889a7.558,7.558,0,0,0-4.7,2.69c-.308.4-.585.8-.84,1.2a26.194,26.194,0,0,0-1.693,4.421l-.011.1a14.257,14.257,0,0,0,2.718,7.885,7.439,7.439,0,0,0,6.819,3.223,6.359,6.359,0,0,0,3.925-2.005,14.122,14.122,0,0,0,2.6-4.277C118.243,272.517,119.641,266.036,119.007,263.56Z" transform="translate(-101.18 -261.522)" fill="#cf9378"/>
        </g>
      </g>
      <path id="Path_1206" data-name="Path 1206" d="M108.219,265.277c.022-.1.038-.211.064-.338q.3-1.406.591-2.81c2.369,1.77,4.939,4.292,8.006,5.31a5.835,5.835,0,0,0,6.405-2.02,7.013,7.013,0,0,0,.663-1.113,8.3,8.3,0,0,1,.41-.99,2.14,2.14,0,0,1-2.666-.584,8.849,8.849,0,0,1-1.336-2.649,12.254,12.254,0,0,0-4.277-5.441,9.806,9.806,0,0,0-6.644-1.731,8.424,8.424,0,0,0-4.049,1.624,7.3,7.3,0,0,0-1.547,1.55c-.2.275-1.03,1.778-.693,2.069a1.7,1.7,0,0,0-1.924-.053,3.976,3.976,0,0,0-1.335,1.531,13.134,13.134,0,0,0-1.52,8.434,16.367,16.367,0,0,0,1.136,3.592c.389.976,1.017,2.063,2.2,2.089,1.635.036,1.454-2.708,1.919-4.124.182-.556.142-1.251.805-1.418s1.754,1.105,2.272.062a1.929,1.929,0,0,0,.012-1.234,1.667,1.667,0,0,1,.078-1.224c.022-.034.866,0,.994-.042A.572.572,0,0,0,108.219,265.277Z" transform="translate(-53.633 -252.85)" fill="#485070"/>
      <path id="Path_1207" data-name="Path 1207" d="M104.468,253.969a6.11,6.11,0,0,0-.664,6.055" transform="translate(-53.919 -252.913)" fill="none" stroke="#485070" stroke-linecap="round" stroke-width="0.75"/>
      <path id="Path_1208" data-name="Path 1208" d="M99.76,257.834a2.67,2.67,0,0,1,3.335.527" transform="translate(-53.72 -253.11)" fill="none" stroke="#485070" stroke-linecap="round" stroke-width="0.75"/>
      <circle id="Ellipse_44" data-name="Ellipse 44" cx="0.734" cy="0.734" r="0.734" transform="translate(58.305 17.142)" fill="#485070"/>
      <path id="Path_1209" data-name="Path 1209" d="M112.934,269.686a2.261,2.261,0,0,1,1.478.042" transform="translate(-54.462 -253.792)" fill="none" stroke="#485070" stroke-linecap="round" stroke-width="0.75"/>
      <path id="Path_1210" data-name="Path 1210" d="M119.147,272.547a.734.734,0,1,1-.734-.734A.734.734,0,0,1,119.147,272.547Z" transform="translate(-54.729 -253.917)" fill="#485070"/>
      <path id="Path_1211" data-name="Path 1211" d="M117.856,270.486a2.261,2.261,0,0,1,1.478.042" transform="translate(-54.739 -253.837)" fill="none" stroke="#485070" stroke-linecap="round" stroke-width="0.75"/>
      <path id="Path_1212" data-name="Path 1212" d="M116.432,272.966a2.558,2.558,0,0,0,.482,1.841.737.737,0,0,1,.213.447.44.44,0,0,1-.352.367,1.274,1.274,0,0,1-.54-.025" transform="translate(-54.647 -253.982)" fill="none" stroke="#485070" stroke-linecap="round" stroke-width="0.75"/>
      <path id="Path_1213" data-name="Path 1213" d="M112.933,277.236a2.944,2.944,0,0,0,2.541.652" transform="translate(-54.462 -254.222)" fill="none" stroke="#485070" stroke-linecap="round" stroke-width="0.75"/>
      <g id="Group_586" data-name="Group 586" transform="translate(47.192 13.851)">
        <path id="Path_1214" data-name="Path 1214" d="M100.981,270.222a2.7,2.7,0,1,0,2.7-2.7A2.7,2.7,0,0,0,100.981,270.222Z" transform="translate(-100.981 -267.527)" fill="#cf9378"/>
        <path id="Path_1215" data-name="Path 1215" d="M103.276,269.159a1.158,1.158,0,0,1,1.241,1.533.791.791,0,0,0-1.322.649" transform="translate(-101.105 -267.618)" fill="none" stroke="#485070" stroke-linecap="round" stroke-linejoin="round" stroke-width="0.75"/>
      </g>
    </g>
    <g id="Group_597" data-name="Group 597" transform="translate(324.815 181.326)">
      <g id="Group_591" data-name="Group 591" transform="translate(10.231 85.693)">
        <g id="Group_588" data-name="Group 588" transform="translate(37.861 1.434)">
          <path id="Path_1216" data-name="Path 1216" d="M419.609,433.869c-.077-.34-9.715,1.346-10.78,1.512l-.116.1c-3.333,2.832-7.56,4.373-11.7,5.87a3.96,3.96,0,0,0-1.746,1c-1.877,2.2,2.108,3.151,3.522,3.269a26.7,26.7,0,0,0,6.847-.667c4.641-.816,9.378-.552,13.973-1.686a.815.815,0,0,0,.485-.249.836.836,0,0,0,.116-.424A28.55,28.55,0,0,0,419.609,433.869Z" transform="translate(-392.724 -289.8)" fill="#485070"/>
          <path id="Path_1217" data-name="Path 1217" d="M398.388,357.514c2.326,23.194,6.572,47,9.229,70.173,5.436.467,7.4.111,12.683-.782,3.46-25.208,4.925-37.374,1.8-62.946-.321-2.625-.044-24.364-.138-27.156-.553-16.621,1.667-35.594-8.315-49.629-2.521-3.545-6.651-6.264-10.85-5.936a9.8,9.8,0,0,0-7.205,4.309c-5.157,7-2.28,26.017-1.363,34.32C395.449,330.875,397.279,346.459,398.388,357.514Z" transform="translate(-392.602 -281.211)" fill="#757e96"/>
          <path id="Path_1218" data-name="Path 1218" d="M400.024,371.945c.942-4.022,2.094-8,3.229-11.972,3.97-13.9,5.609-28.181,7.594-42.464a65.621,65.621,0,0,0,.885-10.205c-.063-3.469-.518-6.959-.8-10.418a90.369,90.369,0,0,0-1.956-14.054,10.561,10.561,0,0,0-6.18-1.593,9.8,9.8,0,0,0-7.205,4.309c-5.157,7-2.28,26.017-1.363,34.32,1.216,11.008,3.045,26.592,4.154,37.647C398.863,362.248,399.419,367.071,400.024,371.945Z" transform="translate(-392.602 -281.211)" fill="#545d78"/>
        </g>
        <g id="Group_589" data-name="Group 589" transform="translate(0 4.642)">
          <path id="Path_1219" data-name="Path 1219" d="M380.068,437.277a1.9,1.9,0,0,0-.286.018,37.421,37.421,0,0,1-9.308-.048,3.329,3.329,0,0,0-1.183-.019,3.4,3.4,0,0,0-.967.464,27.85,27.85,0,0,1-9.413,3.6c-1.911.353-3.97.55-5.487,1.765-.71.568-1.265,1.623-.723,2.354a1.9,1.9,0,0,0,.744.538c2.9,1.362,7.272.832,10.388.659,5.03-.279,10.013.025,14.973-.983a1.284,1.284,0,0,0,.574-.224,1.345,1.345,0,0,0,.371-.77,37.823,37.823,0,0,0,.75-4.167c.064-.552.374-2.546-.007-3.013A.539.539,0,0,0,380.068,437.277Z" transform="translate(-352.483 -293.197)" fill="#485070"/>
          <path id="Path_1220" data-name="Path 1220" d="M393.283,284.614c-11.439-.184-14.939,11.755-16.3,20.938q-4.313,29.09-6.052,58.485c-.576,9.735-1.338,17.959-1.659,27.708-.342,10.008-.881,27.325-.446,37.28a.687.687,0,0,0,.775.8,68.739,68.739,0,0,0,12.634.178,1.087,1.087,0,0,0,.565-.152c.181-.132-1.435-.765-1.367-.979,3.219-9.936,5.419-27.7,6.429-38.086,2.112-21.713,6.623-42.843,14.72-62.9C410.679,308.945,415.254,284.966,393.283,284.614Z" transform="translate(-353.394 -284.612)" fill="#757e96"/>
          <path id="Path_1221" data-name="Path 1221" d="M399.724,340.941a302.449,302.449,0,0,0,11.8-33.616" transform="translate(-355.142 -285.89)" fill="none" stroke="#485070" stroke-width="0.75"/>
        </g>
        <g id="Group_590" data-name="Group 590" transform="translate(23.786)">
          <path id="Path_1222" data-name="Path 1222" d="M396.04,310.058l.11.017c1.047.17,2.094.325,3.144.456.771.1,1.545.176,2.32.248l.762.068q.97.081,1.942.136c.366.021.731.036,1.1.051.286.012.573.027.86.037,0,0,0,0,0-.008a72.179,72.179,0,0,0,14.75-1.037c-.729-8.763-2.642-17.211-7.736-24.371-2.522-3.545-6.651-6.264-10.85-5.936a9.8,9.8,0,0,0-7.2,4.309,10.236,10.236,0,0,0-1.013,1.77c-9.939-.225-14.321,9.788-16.537,18.233a37.737,37.737,0,0,0,7.118,3.238A66.88,66.88,0,0,0,396.04,310.058Z" transform="translate(-377.688 -279.692)" fill="#545d78"/>
        </g>
      </g>
      <g id="Group_593" data-name="Group 593" transform="translate(49.171)">
        <g id="XMLID_10_" transform="translate(5.756 22.348)">
          <g id="XMLID_11_">
            <path id="Path_1223" data-name="Path 1223" d="M402.265,218.213a15.587,15.587,0,0,0-.273-3.834,10,10,0,0,0,5.857.169,16.978,16.978,0,0,0,2.778-1.063c.32-.15.9-.62,1.428-.914-1.166,4.307-1.075,8.8,1.591,12.5a14.767,14.767,0,0,1-7.259,3.089c-2.252.384-7.639.74-6.345-3.05.424-1.24,1.333-2.193,1.693-3.479A15.742,15.742,0,0,0,402.265,218.213Z" transform="translate(-399.844 -212.57)" fill="#f7b699"/>
          </g>
        </g>
        <g id="XMLID_6_" transform="translate(7.532 24.156)">
          <g id="XMLID_9_">
            <path id="Path_1224" data-name="Path 1224" d="M407.587,214.74a9.978,9.978,0,0,1-5.489-.254,16.273,16.273,0,0,1-.258,7.253c-.032.116-.074.227-.114.337.222-.027.445-.066.666-.109A13.4,13.4,0,0,0,407.587,214.74Z" transform="translate(-401.726 -214.486)" fill="#c46e58"/>
          </g>
        </g>
        <g id="XMLID_4_" transform="translate(2.955 6.568)">
          <g id="XMLID_5_">
            <path id="Path_1225" data-name="Path 1225" d="M399.178,196.532c1.324-1.9,2.9.772,5.217.83,2.017.051,3.583.008,5.372,1.052a7.562,7.562,0,0,1,3.469,4.162c.149.479.27.953.368,1.419a26.257,26.257,0,0,1,.043,4.734c-.008.033-.016.066-.025.1a14.258,14.258,0,0,1-5.3,6.44,7.441,7.441,0,0,1-7.516.64,6.363,6.363,0,0,1-2.978-3.25,14.141,14.141,0,0,1-.943-4.915C396.767,205.192,397.719,198.63,399.178,196.532Z" transform="translate(-396.876 -195.849)" fill="#f7b699"/>
          </g>
        </g>
        <path id="Path_1226" data-name="Path 1226" d="M401.617,200.561c-1.812.261-3.286.549-4.948-.424a5.9,5.9,0,0,1-2.652-3.35,7.054,7.054,0,0,1-.233-1.274,8.254,8.254,0,0,0-.039-1.071,2.141,2.141,0,0,0,2.7.383,8.872,8.872,0,0,0,2.177-2.016,12.253,12.253,0,0,1,5.908-3.606,9.808,9.808,0,0,1,6.831.7,8.43,8.43,0,0,1,3.228,2.935,7.292,7.292,0,0,1,.909,1.992c.088.327.344,2.025-.073,2.18a1.7,1.7,0,0,1,1.821.622,3.986,3.986,0,0,1,.717,1.9,12.8,12.8,0,0,1-.837,6.781,51.222,51.222,0,0,1-2.293,4.7,7.6,7.6,0,0,1-3.111,3.078,11.149,11.149,0,0,1-5.5.656,3.843,3.843,0,0,1-3.733-2.359,7.734,7.734,0,0,1-.478-2.464c-.022-.349-.185-2.775.1-2.921a3,3,0,0,1-1.11.394,1.022,1.022,0,0,1-1.005-.487,1.513,1.513,0,0,1,.046-1.087Q400.831,203.193,401.617,200.561Z" transform="translate(-393.745 -188.889)" fill="#485070"/>
        <path id="Path_1227" data-name="Path 1227" d="M417.172,192.893a6.107,6.107,0,0,1-1.491,5.906" transform="translate(-394.979 -189.115)" fill="none" stroke="#485070" stroke-linecap="round" stroke-width="0.75"/>
        <path id="Path_1228" data-name="Path 1228" d="M420.185,198.145a2.67,2.67,0,0,0-3.309-.67" transform="translate(-395.047 -189.355)" fill="none" stroke="#485070" stroke-linecap="round" stroke-width="0.75"/>
        <g id="Group_592" data-name="Group 592" transform="translate(6.935 15.829)">
          <path id="Path_1229" data-name="Path 1229" d="M406.315,209.3a2.695,2.695,0,1,1-1.585-3.466A2.695,2.695,0,0,1,406.315,209.3Z" transform="translate(-401.093 -205.662)" fill="#f7b699"/>
          <path id="Path_1230" data-name="Path 1230" d="M404.8,207.559a1.158,1.158,0,0,0-1.7,1,.791.791,0,0,1,1.013,1.07" transform="translate(-401.206 -205.762)" fill="none" stroke="#485070" stroke-linecap="round" stroke-linejoin="round" stroke-width="0.75"/>
        </g>
      </g>
      <g id="Group_596" data-name="Group 596" transform="translate(0 29.185)">
        <path id="Path_1231" data-name="Path 1231" d="M366.825,241.45a2.49,2.49,0,0,1,1.593-1.853c.831-.29,2.24-.293,2.517-1.129.139-.418.277-.575-.059-.86a2.079,2.079,0,0,0-1.226-.429,3.657,3.657,0,0,0-3.363,1.869c-.2.366-.483.846-.882.73a.678.678,0,0,1-.39-.418c-.471-1.1.18-2.334.81-3.353a5.676,5.676,0,0,1,1.844-2.1,5.471,5.471,0,0,1,3.1-.415c2.13.146,4.362.309,6.161,1.575.472.332.9.719,1.373,1.052a15.135,15.135,0,0,0,4.039,1.805q-.658,2.282-1.316,4.565a.251.251,0,0,1-.373.211c-2.585-.631-5.569-1.16-8.16-1.566A19.485,19.485,0,0,0,366.825,241.45Z" transform="translate(-342.948 -220.582)" fill="#f7b699"/>
        <path id="Path_1232" data-name="Path 1232" d="M381.8,234.6a16.337,16.337,0,0,0-3.521,10.607l4.983,1.987q.858-3.947,1.715-7.892c.172-.791.876-2.474.426-3.128C384.921,235.476,382.6,234.946,381.8,234.6Z" transform="translate(-343.703 -220.647)" fill="#fff"/>
        <path id="Path_1233" data-name="Path 1233" d="M399.049,240.841a36.078,36.078,0,0,0-4.288-2.253c-2.561-1.151-5.256-2.093-7.829-2.985a25.216,25.216,0,0,0-3.008-.925c-2.8,2.989-3.783,8.063-3.447,12.317,2.953,2.589,7.277,4.122,10.533,6.157a34.922,34.922,0,0,0,5.635,3.119,9.938,9.938,0,0,0,6.312.544,4.005,4.005,0,0,0,2.616-1.96,4.6,4.6,0,0,0,.314-2.058A14.788,14.788,0,0,0,399.049,240.841Z" transform="translate(-343.824 -220.651)" fill="#545d78"/>
        <path id="Path_1234" data-name="Path 1234" d="M348.54,258.3a7.8,7.8,0,0,1-.551-6.539,2.86,2.86,0,0,1,1.606-1.816,2.516,2.516,0,0,1,2.611,1.078,11.99,11.99,0,0,1,1.278,2.719,12.654,12.654,0,0,0,1.625,2.812,7.16,7.16,0,0,1,1.716,2.871,2.819,2.819,0,0,1-.783,2.458C353.674,264.215,349.688,260.334,348.54,258.3Z" transform="translate(-341.972 -221.506)" fill="#f7b699"/>
        <g id="Group_594" data-name="Group 594" transform="translate(0 17.862)">
          <path id="Path_1235" data-name="Path 1235" d="M374.906,256.253l-14.32,6.941L341.642,246l14.321-6.941Z" transform="translate(-341.642 -238.76)" fill="#f4ae2d"/>
          <path id="Path_1236" data-name="Path 1236" d="M372.7,255.633l-12.3,5.961-16.368-14.858,12.3-5.961Z" transform="translate(-341.777 -238.856)" fill="#fff"/>
          <path id="Path_1237" data-name="Path 1237" d="M358.378,244.052l-10.221,4.955-1-.905,10.221-4.955Z" transform="translate(-341.953 -238.99)" fill="#c8ddf7"/>
          <path id="Path_1238" data-name="Path 1238" d="M363.911,249.074l-10.222,4.955-1-.905,10.221-4.955Z" transform="translate(-342.264 -239.272)" fill="#c8ddf7"/>
          <path id="Path_1239" data-name="Path 1239" d="M365.744,250.738l-10.222,4.955-1-.9,10.221-4.955Z" transform="translate(-342.367 -239.366)" fill="#c8ddf7"/>
          <path id="Path_1240" data-name="Path 1240" d="M367.577,252.4l-10.221,4.955-1-.905L366.58,251.5Z" transform="translate(-342.47 -239.46)" fill="#c8ddf7"/>
          <path id="Path_1241" data-name="Path 1241" d="M369.41,254.066l-10.222,4.955-1-.906,10.221-4.954Z" transform="translate(-342.573 -239.553)" fill="#c8ddf7"/>
          <path id="Path_1242" data-name="Path 1242" d="M371.243,255.73l-10.222,4.954-1-.905,10.221-4.954Z" transform="translate(-342.676 -239.647)" fill="#c8ddf7"/>
          <path id="Path_1243" data-name="Path 1243" d="M355.69,242.06l-8.593,4.165-3.656-3.318,8.593-4.165Z" transform="translate(-341.743 -238.742)" fill="#485070"/>
        </g>
        <path id="Path_1244" data-name="Path 1244" d="M350.132,256.759a4.3,4.3,0,0,0-.391.531c-1.082,1.739,1.014,3.355,2.346,4.293,3.028,2.131,6.728,3.151,10.239,4.174,1.983.578,7.723-.837,6.138-3.951-1.082-2.126-4.285-3.351-6.392-3.919-2.187-.41-4.054-1.32-4.874-3.536-.364-.985-.511-2.037-.831-3.037a1.474,1.474,0,0,0-.366-.672.569.569,0,0,0-.708-.078.8.8,0,0,0-.224.37c-.612,1.71.487,2.977-1.618,3.98-.7.333-1.467.517-2.145.892A4.289,4.289,0,0,0,350.132,256.759Z" transform="translate(-342.081 -221.54)" fill="#f7b699"/>
        <path id="Path_1245" data-name="Path 1245" d="M361.2,255.167a16.333,16.333,0,0,0-2.359,10.926l5.168,1.439.855-8.031c.086-.8.6-2.554.086-3.156C364.4,255.7,362.035,255.427,361.2,255.167Z" transform="translate(-342.601 -221.804)" fill="#fff"/>
        <path id="Path_1246" data-name="Path 1246" d="M398.8,222a6.473,6.473,0,0,1,3.826-1.2l10.5-.978q.992,3.509,1.984,7.019c-.027-.1-11.347.351-12.427.317-1.134-.035-4.819.334-5.293-.73C396.854,225.241,397.928,222.775,398.8,222Z" transform="translate(-344.771 -219.815)" fill="#fff"/>
        <path id="Path_1247" data-name="Path 1247" d="M420.608,280.55c.01-3.727.22-7.449.457-11.166.309-4.842.674-9.684.736-14.537a98.3,98.3,0,0,0-1.2-18.037c-.26-1.48-.568-2.943-.933-4.382-.075-.3-.157-.61-.243-.93-1.115-2.676-3.23-6.221-6.051-7.8a11.055,11.055,0,0,0-1.414.025q-4.858.326-9.676,1.071c-2.209.342-3.771.621-5.4,2.313-4.146,4.315-8.034,13.982-9.116,19.923-1.033,5.676-.629,6-1.22,11.724q-1.053,10.221-2.976,20.328c-1.08,5.676-2.7,11.835-7.409,15.178,7.812,3.279,15.72,6.587,24.091,7.894s17.385.432,24.507-4.159C421.4,292.81,420.59,286.734,420.608,280.55Z" transform="translate(-343.585 -220.033)" fill="#757e96"/>
        <g id="Group_595" data-name="Group 595" transform="translate(18.011 8.371)">
          <path id="Path_1248" data-name="Path 1248" d="M400.418,243.145a4.166,4.166,0,0,0-1.3-1.628,3.6,3.6,0,0,0-2.155-.5c-3.276.146-5.869,2.821-7.619,5.593s-3.1,5.906-5.593,8.035c-4.354,3.715-14.834.682-19.705-.4-3.71,3.629-4.105,7.823-2.18,12.714,6.53,2.869,20.267,9.674,27.4,6.281a14.871,14.871,0,0,0,5.861-5.571,45.476,45.476,0,0,0,2.381-4.2,40.767,40.767,0,0,0,3.93-9.9A15.694,15.694,0,0,0,400.418,243.145Z" transform="translate(-360.727 -229.379)" fill="#757e96"/>
          <path id="Path_1249" data-name="Path 1249" d="M404.669,230.66a6.9,6.9,0,0,0-8.531-.915c-1.535.964-2.315,2.952-3.109,4.531a43.9,43.9,0,0,0-2.474,5.991c-.7,2.125-1.233,4.3-1.889,6.439-1.074,3.505-2.472,6.917-3.276,10.493a18.561,18.561,0,0,0,.365,10.826c1.922,4.87,8.331,2.283,11.188-.427,2.459-2.334,3.638-5.675,4.734-8.883l3.3-9.668a38.1,38.1,0,0,0,2.185-9.8C407.34,236.022,406.774,232.9,404.669,230.66Z" transform="translate(-362.08 -228.685)" fill="#757e96"/>
          <path id="Path_1250" data-name="Path 1250" d="M387.463,251a68.307,68.307,0,0,1,7.911-20.323" transform="translate(-362.232 -228.797)" fill="none" stroke="#485070" stroke-width="0.75"/>
          <path id="Path_1251" data-name="Path 1251" d="M406.883,245.737l-4.219,11.353c-1.011,2.718-1.969,6.192-3.884,8.435s-3.685,4.674-6.025,6.511a11.5,11.5,0,0,1-8.018,2.717" transform="translate(-362.078 -229.644)" fill="none" stroke="#485070" stroke-width="0.75"/>
          <path id="Path_1252" data-name="Path 1252" d="M409.645,246.8a7.955,7.955,0,0,0-3.021,3.08" transform="translate(-363.31 -229.704)" fill="none" stroke="#485070" stroke-width="0.75"/>
        </g>
        <path id="Path_1253" data-name="Path 1253" d="M363.008,244.361l-1.687.916.857-1.719,10.18-10.542a.578.578,0,0,1,.817-.014h0a.578.578,0,0,1,.014.817Z" transform="translate(-342.749 -220.548)" fill="#485070"/>
      </g>
    </g>
  </g>
</svg>
